<?xml version="1.0" encoding="UTF-8" standalone="no"?>
<!-- Created with Inkscape (http://www.inkscape.org/) -->

<svg
   xmlns:dc="http://purl.org/dc/elements/1.1/"
   xmlns:cc="http://creativecommons.org/ns#"
   xmlns:rdf="http://www.w3.org/1999/02/22-rdf-syntax-ns#"
   xmlns:svg="http://www.w3.org/2000/svg"
   xmlns="http://www.w3.org/2000/svg"
   xmlns:sodipodi="http://sodipodi.sourceforge.net/DTD/sodipodi-0.dtd"
   xmlns:inkscape="http://www.inkscape.org/namespaces/inkscape"
   version="1.1"
   id="svg2"
   width="1920"
   height="1080"
   viewBox="0 0 1920 1080"
   sodipodi:docname="background-shapes.svg"
   inkscape:version="0.92.4 (5da689c313, 2019-01-14)">
  <metadata
     id="metadata8">
    <rdf:RDF>
      <cc:Work
         rdf:about="">
        <dc:format>image/svg+xml</dc:format>
        <dc:type
           rdf:resource="http://purl.org/dc/dcmitype/StillImage" />
        <dc:title />
      </cc:Work>
    </rdf:RDF>
  </metadata>
  <defs
     id="defs6">
    <circle
       r="120"
       cy="120"
       cx="120"
       id="path-1" />
    <path
       id="path-3"
       d="M12,160 C12,226.27417 65.72583,280 132,280 C198.27417,280 252,226.27417 252,160 L264,160 L264,-1.42108547e-14 L-3.19744231e-14,-1.42108547e-14 L-3.19744231e-14,160 L12,160 Z" />
    <path
       id="path-5"
       d="M124,144.610951 L124,163 L128,163 L128,163 C167.764502,163 200,195.235498 200,235 L200,244 L0,244 L0,235 C-4.86974701e-15,195.235498 32.235498,163 72,163 L72,163 L76,163 L76,144.610951 C58.7626345,136.422372 46.3722246,119.687011 44.3051388,99.8812385 C38.4803105,99.0577866 34,94.0521096 34,88 L34,74 C34,68.0540074 38.3245733,63.1180731 44,62.1659169 L44,56 L44,56 C44,25.072054 69.072054,5.68137151e-15 100,0 L100,0 L100,0 C130.927946,-5.68137151e-15 156,25.072054 156,56 L156,62.1659169 C161.675427,63.1180731 166,68.0540074 166,74 L166,88 C166,94.0521096 161.51969,99.0577866 155.694861,99.8812385 C153.627775,119.687011 141.237365,136.422372 124,144.610951 Z" />
    <path
       id="react-path-52"
       d="M108,13.0708856 C90.0813006,15.075938 76.2798424,20.5518341 76.004203,34.6449676 C50.1464329,45.5680933 32,71.1646257 32,100.999485 L32,100.999485 L32,110 L232,110 L232,100.999485 C232,71.1646257 213.853567,45.5680933 187.995797,34.6449832 C187.720158,20.5518341 173.918699,15.075938 156,13.0708856 L156,32 L156,32 C156,45.254834 145.254834,56 132,56 L132,56 C118.745166,56 108,45.254834 108,32 L108,13.0708856 Z" />
    <rect
       height="280"
       width="264"
       y="0"
       x="0"
       id="react-path-26" />
    <path
       id="react-path-25"
       d="M183.679824,38.9488198 C189.086072,33.9985622 190.387393,23.9615454 187.317704,17.4493246 C183.549263,9.45385312 175.901319,8.45217737 168.572342,11.9686703 C161.664469,15.2835661 155.515175,16.3878671 147.950196,14.7817319 C140.691624,13.2406923 133.805566,10.5226172 126.303388,10.0762471 C113.978028,9.34292483 102.003367,13.914565 93.6031232,23.1292512 C92.0003538,24.8871655 90.7089493,26.8971594 89.4882796,28.9343872 C88.5115454,30.5644351 87.4105298,32.3133822 86.9950459,34.1921885 C86.7973853,35.0855929 87.165272,37.2898774 86.7203704,38.0218712 C86.2391099,38.8123183 84.4244668,39.5373375 83.6510124,40.1238625 C82.0842713,41.3125222 80.7267597,42.6539573 79.4713836,44.1710842 C76.8052796,47.3926541 75.3376994,50.7577001 74.1034777,54.7428152 C70.0005333,67.9877849 69.6528094,83.7412616 74.9569218,96.7467724 C75.6639385,98.4811062 77.8550622,102.098564 79.1431613,98.3847912 C79.3976741,97.6508047 78.8086588,95.1907873 78.8099809,94.4501584 C78.8146084,91.7300906 80.3160587,73.7213568 86.857084,63.6330196 C88.9862338,60.3491948 98.8298903,48.0522456 100.840541,47.9536058 C101.9058,49.6464245 112.720532,60.4624529 140.783385,59.1948919 C153.445253,58.6229725 163.18265,52.9341181 165.520833,50.4680909 C166.549375,56.0008881 178.51323,64.2839965 180.33625,67.6921976 C185.602529,77.5376948 186.770677,97.9957204 188.780988,97.9573368 C190.791299,97.9189532 192.234429,92.7197798 192.647929,91.7270713 C195.719601,84.351669 196.242509,75.0948338 195.914948,67.1684434 C195.487565,56.9663626 191.276535,45.9419513 183.679824,38.9488198 Z" />
    <filter
       id="react-filter-22"
       filterUnits="objectBoundingBox"
       height="108.0%"
       width="101.5%"
       y="-2.0%"
       x="-0.8%">
      <feOffset
         id="feOffset972"
         result="shadowOffsetOuter1"
         in="SourceAlpha"
         dy="2"
         dx="0" />
      <feColorMatrix
         id="feColorMatrix974"
         result="shadowMatrixOuter1"
         in="shadowOffsetOuter1"
         type="matrix"
         values="0 0 0 0 0   0 0 0 0 0   0 0 0 0 0  0 0 0 0.16 0" />
      <feMerge
         id="feMerge980">
        <feMergeNode
           id="feMergeNode976"
           in="shadowMatrixOuter1" />
        <feMergeNode
           id="feMergeNode978"
           in="SourceGraphic" />
      </feMerge>
    </filter>
    <path
       id="react-path-49"
       d="M101.428403,98.1685688 C98.9148372,100.462621 96.23722,101.494309 92.8529444,100.772863 C92.2705777,100.648833 89.8963391,96.2345713 83.9998344,96.2345713 C78.1033297,96.2345713 75.7294253,100.648833 75.1467245,100.772863 C71.7624488,101.494309 69.0848316,100.462621 66.5712661,98.1685688 C61.8461772,93.855604 57.9166219,87.9081858 60.2778299,81.4191814 C61.5083844,78.0369425 63.5097479,74.3237342 67.1506257,73.2459109 C71.0384163,72.0955419 76.4968931,73.2439051 80.4147542,72.4582708 C81.6840664,72.2035248 83.0706538,71.7508657 83.9998344,71 C84.929015,71.7508657 86.3159365,72.2035248 87.5845805,72.4582708 C91.5027758,73.2439051 96.9612525,72.0955419 100.849043,73.2459109 C104.489921,74.3237342 106.491284,78.0369425 107.722173,81.4191814 C110.083381,87.9081858 106.153826,93.855604 101.428403,98.1685688 M140.081033,26 C136.670693,34.4002532 137.987774,44.8580348 137.356666,53.6758724 C136.844038,60.8431942 135.33712,71.5857526 128.972858,76.214531 C125.718361,78.5816138 119.79436,82.5598986 115.54187,81.4501943 C112.614539,80.6863848 112.302182,72.290096 108.455284,69.1469801 C104.09172,65.5823153 98.6429854,64.0160432 93.1491481,64.2578722 C90.7785381,64.3622683 85.9841367,64.3374908 83.9999331,66.1604584 C82.0157295,64.3374908 77.2216647,64.3622683 74.8510547,64.2578722 C69.3568808,64.0160432 63.9081467,65.5823153 59.5445817,69.1469801 C55.6976839,72.290096 55.3856641,80.6863848 52.4583326,81.4501943 C48.2058427,82.5598986 42.2818421,78.5816138 39.0270077,76.214531 C32.6624096,71.5857526 31.1561652,60.8431942 30.642864,53.6758724 C30.0120926,44.8580348 31.3291729,34.4002532 27.9188335,26 C26.2597768,26 27.3540339,42.1288693 27.3540339,42.1288693 L27.3540339,62.4851205 C27.3856735,77.7732046 36.935095,100.655445 58.1080116,109.393004 C63.2861266,111.52982 75.0153111,115 83.9999331,115 C92.9845551,115 104.71374,111.860188 109.891855,109.723371 C131.064771,100.985813 140.614193,77.7732046 140.646169,62.4851205 L140.646169,42.1288693 C140.646169,42.1288693 141.740089,26 140.081033,26" />
    <filter
       id="react-filter-41"
       filterUnits="objectBoundingBox"
       height="109.8%"
       width="101.5%"
       y="-2.4%"
       x="-0.8%">
      <feOffset
         id="feOffset1013"
         result="shadowOffsetOuter1"
         in="SourceAlpha"
         dy="2"
         dx="0" />
      <feColorMatrix
         id="feColorMatrix1015"
         result="shadowMatrixOuter1"
         in="shadowOffsetOuter1"
         type="matrix"
         values="0 0 0 0 0   0 0 0 0 0   0 0 0 0 0  0 0 0 0.2 0" />
      <feMerge
         id="feMerge1021">
        <feMergeNode
           id="feMergeNode1017"
           in="shadowMatrixOuter1" />
        <feMergeNode
           id="feMergeNode1019"
           in="SourceGraphic" />
      </feMerge>
    </filter>
    <filter
       inkscape:collect="always"
       style="color-interpolation-filters:sRGB"
       id="filter877"
       x="-0.012"
       width="1.024"
       y="-0.012"
       height="1.024">
      <feGaussianBlur
         inkscape:collect="always"
         stdDeviation="0.57492824"
         id="feGaussianBlur879" />
    </filter>
  </defs>
  <sodipodi:namedview
     pagecolor="#ffffff"
     bordercolor="#666666"
     borderopacity="1"
     objecttolerance="10"
     gridtolerance="10"
     guidetolerance="10"
     inkscape:pageopacity="0"
     inkscape:pageshadow="2"
     inkscape:window-width="1536"
     inkscape:window-height="801"
     id="namedview4"
     showgrid="false"
     inkscape:zoom="0.4026923"
     inkscape:cx="971.66385"
     inkscape:cy="549.23656"
     inkscape:window-x="1912"
     inkscape:window-y="-8"
     inkscape:window-maximized="1"
     inkscape:current-layer="svg2" />
  <g
     id="g912">
    <rect
       y="-0.22925171"
       x="0"
       height="1087.6791"
       width="1927.0297"
       id="rect866"
       style="opacity:1;fill:#65c9ff;fill-opacity:1;fill-rule:nonzero;stroke:none;stroke-width:3.77952766;stroke-linejoin:round;stroke-miterlimit:4;stroke-dasharray:none;stroke-opacity:1" />
  </g>
  <circle
     style="opacity:1;fill:#65b2ff;fill-opacity:1;fill-rule:nonzero;stroke:none;stroke-width:3.77952766;stroke-linejoin:round;stroke-miterlimit:4;stroke-dasharray:none;stroke-opacity:1"
     id="path835"
     cx="1584.3362"
     cy="789.45557"
     r="59.598854" />
  <circle
     style="opacity:1;fill:#65dfff;fill-opacity:1;fill-rule:nonzero;stroke:none;stroke-width:3.7795279;stroke-linejoin:round;stroke-miterlimit:4;stroke-dasharray:none;stroke-opacity:1"
     id="path835-6"
     cx="198.66284"
     cy="218.29993"
     r="65.807068" />
  <circle
     style="opacity:1;fill:#65bbff;fill-opacity:1;fill-rule:nonzero;stroke:none;stroke-width:3.77952766;stroke-linejoin:round;stroke-miterlimit:4;stroke-dasharray:none;stroke-opacity:1"
     id="path835-2"
     cx="736.29419"
     cy="922.31134"
     r="81.948425" />
  <circle
     style="opacity:1;fill:#658aff;fill-opacity:0.78391957;fill-rule:nonzero;stroke:none;stroke-width:3.77952766;stroke-linejoin:round;stroke-miterlimit:4;stroke-dasharray:none;stroke-opacity:1"
     id="path835-0"
     cx="1020.6304"
     cy="260.51575"
     r="53.39064" />
  <path
     style="fill:#ffffff;fill-opacity:1;stroke:#ffffff;stroke-width:5;stroke-linecap:butt;stroke-linejoin:miter;stroke-miterlimit:4;stroke-dasharray:none;stroke-opacity:1"
     d="M 268.19485,528.71059 307.92742,377.23017"
     id="path870"
     inkscape:connector-curvature="0" />
  <path
     style="fill:#ffffff;fill-opacity:1;stroke:#ffffff;stroke-width:5;stroke-linecap:butt;stroke-linejoin:miter;stroke-miterlimit:4;stroke-dasharray:none;stroke-opacity:1"
     d="m 1607.8653,833.28297 156.5714,-3.22308"
     id="path870-4"
     inkscape:connector-curvature="0" />
  <path
     style="fill:#ffffff;fill-opacity:1;stroke:#ffffff;stroke-width:5;stroke-linecap:butt;stroke-linejoin:miter;stroke-miterlimit:4;stroke-dasharray:none;stroke-opacity:1"
     d="M 1632.51,481.45738 1901.0778,240.72023"
     id="path870-43"
     inkscape:connector-curvature="0" />
  <path
     style="fill:#ffffff;fill-opacity:1;stroke:#ffffff;stroke-width:5;stroke-linecap:butt;stroke-linejoin:miter;stroke-miterlimit:4;stroke-dasharray:none;stroke-opacity:1"
     d="m 532.60257,681.80256 156.5714,-3.22308"
     id="path870-4-7"
     inkscape:connector-curvature="0" />
  <path
     style="fill:#ffffff;fill-opacity:1;stroke:#ffffff;stroke-width:5;stroke-linecap:butt;stroke-linejoin:miter;stroke-miterlimit:4;stroke-dasharray:none;stroke-opacity:1"
     d="M 340.65986,1050.4505 468.89128,960.55232"
     id="path870-4-6"
     inkscape:connector-curvature="0" />
  <rect
     style="opacity:1;fill:none;fill-opacity:1;fill-rule:nonzero;stroke:#658aff;stroke-width:9;stroke-linejoin:round;stroke-miterlimit:4;stroke-dasharray:none;stroke-opacity:1"
     id="rect1167"
     width="345.1767"
     height="345.1767"
     x="261.0134"
     y="398.24719"
     transform="rotate(33.793691)" />
  <rect
     style="opacity:1;fill:none;fill-opacity:1;fill-rule:nonzero;stroke:#658aff;stroke-width:9;stroke-linejoin:round;stroke-miterlimit:4;stroke-dasharray:none;stroke-opacity:1"
     id="rect1167-4"
     width="98.145912"
     height="98.145912"
     x="533.35699"
     y="366.87173"
     transform="rotate(33.793692)" />
  <rect
     style="opacity:1;fill:none;fill-opacity:1;fill-rule:nonzero;stroke:#658aff;stroke-width:9;stroke-linejoin:round;stroke-miterlimit:4;stroke-dasharray:none;stroke-opacity:1"
     id="rect1167-4-1"
     width="98.145912"
     height="98.145912"
     x="222.7309"
     y="362.6124"
     transform="rotate(33.793692)" />
  <rect
     style="opacity:1;fill:none;fill-opacity:1;fill-rule:nonzero;stroke:#658aff;stroke-width:9;stroke-linejoin:round;stroke-miterlimit:4;stroke-dasharray:none;stroke-opacity:1"
     id="rect1167-4-2-5"
     width="318.58499"
     height="318.58499"
     x="1545.7737"
     y="749.03845"
     transform="rotate(-23.037706)" />
  <circle
     style="opacity:1;fill:#65dfff;fill-opacity:1;fill-rule:nonzero;stroke:none;stroke-width:3.77952766;stroke-linejoin:round;stroke-miterlimit:4;stroke-dasharray:none;stroke-opacity:1"
     id="path835-6-4"
     cx="1634.002"
     cy="148.76787"
     r="39.732571" />
  <circle
     style="opacity:1;fill:#65dfff;fill-opacity:1;fill-rule:nonzero;stroke:none;stroke-width:3.7795279;stroke-linejoin:round;stroke-miterlimit:4;stroke-dasharray:none;stroke-opacity:1"
     id="path835-6-7"
     cx="1116.2368"
     cy="706.2655"
     r="24.832853" />
</svg>
