<?xml version="1.0" encoding="UTF-8" standalone="no"?>
<!-- Created with Inkscape (http://www.inkscape.org/) -->

<svg
   xmlns:dc="http://purl.org/dc/elements/1.1/"
   xmlns:cc="http://creativecommons.org/ns#"
   xmlns:rdf="http://www.w3.org/1999/02/22-rdf-syntax-ns#"
   xmlns:svg="http://www.w3.org/2000/svg"
   xmlns="http://www.w3.org/2000/svg"
   xmlns:sodipodi="http://sodipodi.sourceforge.net/DTD/sodipodi-0.dtd"
   xmlns:inkscape="http://www.inkscape.org/namespaces/inkscape"
   version="1.1"
   id="svg2"
   width="500"
   height="500"
   viewBox="0 0 500 500"
   sodipodi:docname="djb-logo.svg"
   inkscape:version="0.92.4 (5da689c313, 2019-01-14)">
  <metadata
     id="metadata8">
    <rdf:RDF>
      <cc:Work
         rdf:about="">
        <dc:format>image/svg+xml</dc:format>
        <dc:type
           rdf:resource="http://purl.org/dc/dcmitype/StillImage" />
        <dc:title></dc:title>
      </cc:Work>
    </rdf:RDF>
  </metadata>
  <defs
     id="defs6" />
  <sodipodi:namedview
     pagecolor="#ffffff"
     bordercolor="#666666"
     borderopacity="1"
     objecttolerance="10"
     gridtolerance="10"
     guidetolerance="10"
     inkscape:pageopacity="0"
     inkscape:pageshadow="2"
     inkscape:window-width="1536"
     inkscape:window-height="801"
     id="namedview4"
     showgrid="false"
     inkscape:zoom="0.39333333"
     inkscape:cx="249.15252"
     inkscape:cy="223.72883"
     inkscape:window-x="1912"
     inkscape:window-y="-8"
     inkscape:window-maximized="1"
     inkscape:current-layer="svg2" />
  <rect
     style="opacity:1;fill:#000000;fill-opacity:1;fill-rule:nonzero;stroke:none;stroke-width:1.43400002;stroke-linejoin:round;stroke-miterlimit:4;stroke-dasharray:none;stroke-opacity:1"
     id="rect837"
     width="500"
     height="500"
     x="0"
     y="0" />
  <path
     style="fill:#ffffff;fill-opacity:1;stroke-width:1"
     d="m 229.54445,446.15146 c -41.03479,-5.47941 -81.3747,-24.41168 -110.53117,-51.87433 -19.492935,-18.3605 -32.947425,-36.34537 -43.836065,-58.59644 -15.60659,-31.89223 -21.51796,-59.41391 -20.5539,-95.69313 0.48494,-18.24925 2.08224,-29.59273 6.51009,-46.23235 C 77.193795,133.40116 122.6395,82.48139 181.2471,59.1735 c 37.99594,-15.110755 80.93278,-18.15515 121.19396,-8.593141 26.11513,6.202332 51.68229,18.214607 73.86241,34.702951 11.10549,8.25563 31.93141,29.01395 40.1093,39.97909 49.52887,66.40968 53.90063,154.58271 11.19073,225.70242 -10.80656,17.99488 -31.09949,40.97256 -47.14104,53.37782 -27.74619,21.45667 -57.23843,34.54276 -91.60445,40.64607 -13.48788,2.39541 -45.39771,3.02095 -59.31356,1.16275 z m 46.76823,-5.39792 c 20.97799,-2.27809 45.11791,-9.18336 63.80763,-18.25229 32.43784,-15.74001 58.48938,-38.46906 78.17994,-68.20924 21.6682,-32.72715 32.29266,-67.94233 32.37301,-107.3018 0.0457,-22.59734 -2.75541,-40.85299 -9.39839,-61.24286 C 431.24831,154.97164 415.10543,129.29299 391.0877,105.91402 360.6618,76.29732 322.59511,58.083063 278.98324,52.273983 267.68305,50.768804 241.65283,50.963878 229.4437,52.645239 175.93635,60.013923 128.13891,88.78746 96.693945,132.55915 c -51.265953,71.36269 -48.398059,167.9824 7.031395,236.88863 16.8812,20.98558 39.61388,39.19258 64.62891,51.76241 20.73747,10.42039 46.01298,17.72456 68.62324,19.83088 7.57546,0.70572 31.82083,0.52849 39.33519,-0.28753 z M 127.59241,333.95634 c -5.38756,-1.45875 -14.13675,-5.52279 -14.13675,-6.56658 0,-0.91143 2.82771,-3.84383 50.65748,-52.53311 53.74414,-54.7099 57.84881,-58.93846 52.90123,-54.49777 -5.53281,4.96596 -40.41342,39.83038 -79.69978,79.66278 -14.09813,14.29409 -25.9366,25.98926 -26.30769,25.98926 -0.3711,0 -1.16198,-0.5871 -1.75752,-1.30467 -0.93991,-1.13253 8.18179,-10.56972 69.13488,-71.526 l 70.21764,-70.22134 2.02439,2.02439 2.02439,2.02438 -4.9253,5.5109 c -16.32742,18.26865 -21.24162,26.42842 -21.80792,36.2109 -0.30377,5.24758 -0.0705,6.87545 1.39804,9.75395 l 1.76268,3.45513 -6.34324,7.30866 c -3.48878,4.01976 -8.39934,9.4792 -10.91235,12.13207 -4.47755,4.72677 -4.60331,4.79344 -6.27613,3.32719 -1.83846,-1.61143 -1.8369,-1.65853 -0.0883,2.66276 0.67168,1.65988 -1.63546,1.64451 -3.01697,-0.0201 -0.5787,-0.69729 -1.24608,-1.07389 -1.48308,-0.8369 -0.23699,0.237 0.25392,1.18762 1.09092,2.11249 1.49658,1.65371 1.39191,1.8147 -6.31289,9.70987 -11.11504,11.38964 -14.57662,14.49422 -15.86033,14.22463 -0.61828,-0.12984 -1.03283,0.33767 -0.92122,1.03891 0.11161,0.70124 -2.40152,3.85947 -5.58474,7.0183 -5.70501,5.6613 -5.81191,5.72135 -7.48624,4.2061 -0.93423,-0.84546 -1.8925,-1.3433 -2.12949,-1.1063 -0.237,0.23699 0.1396,0.90438 0.83689,1.48307 0.6973,0.5787 1.24297,1.47424 1.21263,1.99008 -0.0651,1.1069 -24.44107,23.35042 -27.91695,25.47474 -3.45838,2.11364 -6.05623,2.43974 -10.29433,1.29222 z m 257.02903,-10.17793 c -4.67686,-0.76998 -11.44924,-4.17212 -17.79151,-8.93766 -3.69638,-2.77743 -7.1008,-5.31912 -7.56538,-5.64822 -0.8005,-0.56702 12.53528,-14.78989 13.86744,-14.78989 0.33457,0 6.78519,5.59884 14.33471,12.44187 l 13.72637,12.44187 -2.08108,1.63699 c -1.14461,0.90034 -3.95587,2.03905 -6.24727,2.53047 -4.2439,0.91015 -4.60105,0.92422 -8.24328,0.32457 z m -6.23847,-16.06702 c 0,-1.52446 -0.50053,-2.15057 -1.87526,-2.34579 -1.12483,-0.15972 -2.07583,0.25636 -2.37644,1.03975 -0.8282,2.15824 0.33262,3.94204 2.37644,3.65182 1.37473,-0.19521 1.87526,-0.82132 1.87526,-2.34578 z m -27.6063,-6.94818 c -3.62624,-3.82149 -9.56003,-10.46547 -13.1862,-14.76439 -3.62616,-4.29892 -12.97411,-15.3024 -20.77322,-24.45216 -14.48655,-16.99536 -25.66589,-30.26789 -49.04307,-58.22578 -7.2681,-8.69228 -17.54498,-20.79277 -22.8375,-26.88998 -17.78123,-20.48472 -19.18844,-22.56685 -19.18844,-28.39138 0,-1.84818 0.19859,-3.36032 0.44131,-3.36032 0.24272,0 1.64637,1.39591 3.11924,3.10202 28.11896,32.57216 87.43274,93.51988 126.45582,129.93936 l 16.43892,15.34213 -7.2904,7.32434 c -4.00972,4.02838 -7.3473,7.32434 -7.41685,7.32434 -0.0695,0 -3.09337,-3.12668 -6.71961,-6.94818 z M 255.5023,181.1223 c -0.51411,-1.54234 -2.30477,-1.79815 -2.30477,-0.32925 0,0.72435 0.59266,1.31701 1.31701,1.31701 0.72437,0 1.16885,-0.4445 0.98776,-0.98776 z m 121.98229,100.06668 c -7.1723,-4.37367 -6.42611,-14.80782 1.34642,-18.82714 5.89709,-3.04951 13.1566,0.4631 14.9842,7.2503 1.13545,4.21676 -1.24176,9.9362 -4.92058,11.83859 -3.39624,1.75626 -8.28462,1.64412 -11.41004,-0.26175 z m 10.38183,-0.46848 c 3.17449,-1.64159 5.07299,-4.78923 5.07299,-8.41082 0,-5.7555 -3.9752,-9.84804 -9.56566,-9.84804 -5.75633,0 -9.56567,3.94715 -9.56567,9.91175 0,3.88361 1.14102,5.93075 4.42002,7.9301 3.15471,1.92356 6.44932,2.06611 9.63832,0.41701 z m -10.03458,-2.85262 c 0.80554,-0.5106 1.03503,-2.34352 0.8318,-6.64351 l -0.28067,-5.93838 3.40621,0.002 c 5.33224,0.003 7.91444,3.66907 4.34515,6.1691 -1.79313,1.25596 -1.79578,1.29291 -0.22772,3.16641 0.87262,1.04258 2.13491,2.3635 2.80508,2.93536 1.03957,0.88707 0.95517,1.03975 -0.57482,1.03975 -0.98632,0 -2.17446,-0.65504 -2.64032,-1.45565 -2.90145,-4.98629 -5.51796,-5.62719 -4.19908,-1.02853 0.68478,2.38769 0.60971,2.48369 -1.93283,2.47144 -1.77041,-0.008 -2.27735,-0.24594 -1.5328,-0.71788 z m 6.84747,-7.24118 c 1.36655,-1.6466 0.0606,-4.08926 -2.18643,-4.08926 -1.35856,0 -1.87658,2.01691 -1.2818,4.99078 0.18421,0.92106 2.44288,0.33395 3.46823,-0.90152 z m -127.06317,-92.9615 -1.81988,-1.92074 10.56531,-10.54185 c 5.81091,-5.79801 10.82581,-10.54185 11.1442,-10.54185 0.31839,0 1.02892,1.50207 1.57896,3.33794 0.92635,3.09188 0.85217,3.49649 -1.00635,5.48859 -2.26895,2.43202 -17.86136,16.1351 -18.33461,16.113 -0.16926,-0.008 -1.1267,-0.87869 -2.12763,-1.93509 z"
     id="path835"
     inkscape:connector-curvature="0" />
</svg>
