<svg xmlns="http://www.w3.org/2000/svg" width="500" height="500" xmlns:v="https://vecta.io/nano"><path d="M0 0h500v500H0z"/><path d="M229.544 446.15c-41.035-5.48-81.375-24.412-110.53-51.874-19.493-18.36-32.947-36.345-43.836-58.596-15.607-31.892-21.518-59.414-20.554-95.693.485-18.25 2.082-29.593 6.5-46.232C77.194 133.4 122.64 82.48 181.247 59.174c37.996-15.11 80.933-18.155 121.194-8.593 26.115 6.202 51.682 18.215 73.862 34.703 11.105 8.256 31.93 29.014 40.11 39.98 49.53 66.4 53.9 154.583 11.19 225.702-10.807 17.995-31.1 40.973-47.14 53.378-27.746 21.457-57.238 34.543-91.604 40.646-13.488 2.395-45.398 3.02-59.314 1.163zm46.768-5.398c20.978-2.278 45.118-9.183 63.808-18.252 32.438-15.74 58.49-38.47 78.18-68.21 21.668-32.727 32.293-67.942 32.373-107.302.046-22.597-2.755-40.853-9.398-61.243-10.027-30.776-26.17-56.454-50.187-79.833-30.426-29.617-68.493-47.83-112.104-53.64-11.3-1.505-37.33-1.3-49.54.37-53.507 7.37-101.305 36.142-132.75 79.914-51.266 71.363-48.398 167.982 7.03 236.89 16.88 20.986 39.614 39.193 64.63 51.762 20.737 10.42 46.013 17.725 68.623 19.83 7.575.706 31.82.528 39.335-.288zm-148.72-106.797c-5.388-1.46-14.137-5.523-14.137-6.567 0-.91 2.828-3.844 50.657-52.533l52.9-54.498c-5.533 4.966-40.413 39.83-79.7 79.663l-26.308 25.99c-.37 0-1.162-.587-1.758-1.305-.94-1.133 8.182-10.57 69.135-71.526l70.218-70.22 4.05 4.05-4.925 5.51c-16.327 18.27-21.242 26.428-21.808 36.21-.304 5.248-.07 6.875 1.398 9.754l1.763 3.455-6.343 7.31c-3.49 4.02-8.4 9.48-10.912 12.132-4.478 4.727-4.603 4.793-6.276 3.327-1.838-1.61-1.837-1.66-.088 2.663.672 1.66-1.635 1.645-3.017-.02-.58-.697-1.246-1.074-1.483-.837s.254 1.188 1.09 2.112c1.497 1.654 1.392 1.815-6.313 9.7-11.115 11.4-14.577 14.494-15.86 14.225-.618-.13-1.033.338-.92 1.04s-2.402 3.86-5.585 7.018c-5.705 5.66-5.812 5.72-7.486 4.206-.934-.845-1.893-1.343-2.13-1.106s.14.904.837 1.483 1.243 1.474 1.213 2c-.065 1.107-24.44 23.35-27.917 25.475-3.458 2.114-6.056 2.44-10.294 1.292zm257.03-10.178c-4.677-.77-11.45-4.172-17.792-8.938l-7.565-5.648c-.8-.567 12.535-14.8 13.867-14.8.335 0 6.785 5.6 14.335 12.442l13.726 12.442-2.08 1.637c-1.145.9-3.956 2.04-6.247 2.53-4.244.9-4.6.924-8.243.325zm-6.238-16.067c0-1.524-.5-2.15-1.875-2.346-1.125-.16-2.076.256-2.376 1.04-.828 2.158.333 3.942 2.376 3.652 1.375-.195 1.875-.82 1.875-2.346zm-27.606-6.948c-3.626-3.82-9.56-10.465-13.186-14.764l-20.773-24.452-49.043-58.226-22.838-26.9c-17.78-20.485-19.188-22.567-19.188-28.39 0-1.848.2-3.36.44-3.36s1.646 1.396 3.12 3.102c28.12 32.572 87.433 93.52 126.456 129.94l16.44 15.342-7.3 7.324-7.417 7.324c-.07 0-3.093-3.127-6.72-6.948zm-95.274-119.64c-.514-1.542-2.305-1.798-2.305-.33a1.32 1.32 0 0 0 1.317 1.317c.724 0 1.17-.445.988-.988zM377.485 281.19c-7.172-4.374-6.426-14.808 1.346-18.827 5.897-3.05 13.157.463 14.984 7.25 1.135 4.217-1.242 9.936-4.92 11.84-3.396 1.756-8.285 1.644-11.4-.262zm10.382-.468c3.174-1.642 5.073-4.79 5.073-8.41 0-5.755-3.975-9.848-9.566-9.848-5.756 0-9.566 3.947-9.566 9.912 0 3.884 1.14 5.93 4.42 7.93 3.155 1.924 6.45 2.066 9.638.417zm-10.035-2.853c.806-.51 1.035-2.344.832-6.644l-.28-5.938 3.406.002c5.332.003 7.914 3.67 4.345 6.17-1.793 1.256-1.796 1.293-.228 3.166.873 1.043 2.135 2.363 2.805 2.935 1.04.887.955 1.04-.575 1.04-.986 0-2.174-.655-2.64-1.456-2.9-4.986-5.518-5.627-4.2-1.03.685 2.388.6 2.484-1.933 2.47-1.77-.008-2.277-.246-1.533-.718zm6.847-7.24c1.367-1.647.06-4.09-2.186-4.09-1.36 0-1.877 2.017-1.282 4.99.184.92 2.443.334 3.468-.902zm-127.063-92.96l-1.82-1.92 10.565-10.542c5.81-5.798 10.826-10.542 11.144-10.542s1.03 1.502 1.58 3.338c.926 3.092.852 3.496-1.006 5.49-2.27 2.432-17.86 16.135-18.335 16.113-.17-.008-1.127-.88-2.128-1.935z" fill="#fff"/></svg>