<?xml version="1.0" encoding="UTF-8" standalone="no"?>
<!-- Created with Inkscape (http://www.inkscape.org/) -->

<svg
   xmlns:dc="http://purl.org/dc/elements/1.1/"
   xmlns:cc="http://creativecommons.org/ns#"
   xmlns:rdf="http://www.w3.org/1999/02/22-rdf-syntax-ns#"
   xmlns:svg="http://www.w3.org/2000/svg"
   xmlns="http://www.w3.org/2000/svg"
   xmlns:sodipodi="http://sodipodi.sourceforge.net/DTD/sodipodi-0.dtd"
   xmlns:inkscape="http://www.inkscape.org/namespaces/inkscape"
   version="1.1"
   id="svg2"
   width="286.01389"
   height="285.97183"
   viewBox="0 0 286.01389 285.97183"
   sodipodi:docname="linkedin-logo.svg"
   inkscape:version="0.92.4 (5da689c313, 2019-01-14)">
  <metadata
     id="metadata8">
    <rdf:RDF>
      <cc:Work
         rdf:about="">
        <dc:format>image/svg+xml</dc:format>
        <dc:type
           rdf:resource="http://purl.org/dc/dcmitype/StillImage" />
        <dc:title></dc:title>
      </cc:Work>
    </rdf:RDF>
  </metadata>
  <defs
     id="defs6">
    <clipPath
       clipPathUnits="userSpaceOnUse"
       id="clipPath841">
      <path
         style="fill:#0096d2"
         d="m 130.74797,396.57325 c -5.53125,-1.97391 -10.34444,-6.03041 -13.47567,-11.35714 L 114.5,380.5 114.23444,258.16464 c -0.17425,-80.27224 0.0826,-123.62835 0.74704,-126.09588 1.48735,-5.52357 6.27658,-11.54849 11.72636,-14.7519 L 131.5,114.5 H 256 380.5 l 4.71611,2.7723 c 5.32673,3.13123 9.38323,7.94442 11.35714,13.47567 1.08964,3.05337 1.34714,26.2965 1.38286,124.82389 0.0493,136.10232 0.55196,126.9727 -7.42979,134.95446 -7.98176,7.98175 1.14786,7.47913 -134.95446,7.42979 -98.52739,-0.0357 -121.77052,-0.29322 -124.82389,-1.38286 z M 209.8,334.8 c 0.9049,-0.9049 1.2,-15.03663 1.2,-57.46482 0,-54.60392 -0.0571,-56.29537 -1.93426,-57.3 -1.0957,-0.5864 -8.68248,-1.03518 -17.5,-1.03518 -14.29526,0 -15.73098,0.16524 -17.59026,2.02452 -1.99088,1.99088 -2.01996,2.94724 -1.75,57.53685 0.23763,48.05322 0.47607,55.63968 1.77452,56.46016 2.2908,1.44754 34.32918,1.24929 35.8,-0.22153 z m 56.99376,-0.0515 c 0.65427,-0.78836 1.18561,-13.64818 1.43579,-34.75 0.43072,-36.33097 0.65827,-37.97116 6.06411,-43.71074 5.25538,-5.57982 17.5491,-6.45501 22.88183,-1.62895 5.20124,4.70706 5.29001,5.37198 5.82451,43.62892 0.42401,30.34837 0.72798,35.93166 2,36.73468 2.29194,1.44691 34.32972,1.24786 35.8,-0.22242 1.97876,-1.97876 1.66235,-74.61228 -0.36851,-84.59216 -2.99951,-14.73995 -8.84121,-23.63567 -18.68715,-28.45676 -8.23415,-4.03187 -13.66098,-5.03463 -24.48609,-4.52451 -11.78607,0.55541 -19.04152,3.07004 -25.65534,8.89176 L 267,230.16997 266.9847,226.33499 C 266.9573,219.47665 267.0222,219.5 248,219.5 c -14.08786,0 -17.23874,0.26226 -18.02116,1.5 -0.56755,0.89782 -0.95436,23.65178 -0.96353,56.67857 -0.0136,48.84236 0.16514,55.35902 1.55612,56.75 1.3039,1.3039 4.43259,1.57143 18.37755,1.57143 12.23564,0 17.08859,-0.34035 17.84478,-1.25149 z M 202.12037,205.20578 c 12.41367,-6.48498 15.60669,-22.80218 6.60017,-33.72865 -8.17192,-9.91395 -24.76576,-10.02328 -33.37326,-0.21988 -4.15256,4.72951 -5.66443,9.68146 -5.14562,16.8539 0.57019,7.88287 4.34037,13.38971 11.73384,17.13885 7.25061,3.67669 13.0867,3.6639 20.18487,-0.0442 z"
         id="path843"
         inkscape:connector-curvature="0" />
    </clipPath>
  </defs>
  <sodipodi:namedview
     pagecolor="#ffffff"
     bordercolor="#666666"
     borderopacity="1"
     objecttolerance="10"
     gridtolerance="10"
     guidetolerance="10"
     inkscape:pageopacity="0"
     inkscape:pageshadow="2"
     inkscape:window-width="1920"
     inkscape:window-height="1017"
     id="namedview4"
     showgrid="false"
     inkscape:zoom="0.4609375"
     inkscape:cx="134.32901"
     inkscape:cy="129.94797"
     inkscape:window-x="-8"
     inkscape:window-y="-8"
     inkscape:window-maximized="1"
     inkscape:current-layer="g821" />
  <g
     id="g821"
     transform="translate(-123.84049,-99.976145)">
    <path
       style="fill:#ffffff;fill-opacity:1"
       d="m 141.48752,384.35108 c -3.28604,-1.00926 -6.41923,-3.05195 -9.67478,-6.30751 -8.50848,-8.50848 -7.96529,0.702 -7.96529,-135.06052 0,-135.74124 -0.54098,-126.55426 7.95238,-135.04762 8.49336,-8.493358 -0.69362,-7.952378 135.04762,-7.952378 135.74121,0 126.55426,-0.54098 135.04761,7.952378 8.4934,8.49336 7.9524,-0.69362 7.9524,135.04762 0,135.74124 0.541,126.55426 -7.9524,135.04762 -8.50098,8.50098 0.7665,7.96176 -135.47911,7.88273 -103.49001,-0.06 -120.73954,-0.27575 -124.92843,-1.56232 z m 79.11834,-119.30382 c 0.20369,-44.48618 -0.008,-56.60494 -1,-57.23468 -2.11283,-1.34133 -33.17965,-1.00829 -34.55841,0.37047 -1.75146,1.75146 -1.7295,110.8705 0.0227,112.62266 0.89032,0.89032 5.85087,1.14854 18.25,0.95 l 17.0273,-0.27266 z m 57.24833,22.43579 0.50674,-34 2.82802,-5.77292 c 3.80433,-7.76588 8.14257,-10.09494 17.78826,-9.54991 5.88441,0.3325 7.21606,0.77996 9.86023,3.31324 5.48555,5.25549 6.01001,9.22525 6.01001,45.49109 0,24.03661 0.31572,32.93422 1.2,33.8185 0.83781,0.83781 6.25562,1.2 17.95031,1.2 14.91132,0 16.85829,-0.19213 17.73387,-1.75 1.52849,-2.71954 0.25143,-75.03932 -1.47889,-83.75 -3.89707,-19.61842 -14.73857,-29.39866 -35.45842,-31.98743 -10.91234,-1.36341 -24.94102,2.87359 -32.68808,9.8726 -2.20066,1.98815 -4.28415,3.61483 -4.62999,3.61483 -0.34584,0 -0.6288,-1.935 -0.6288,-4.3 0,-2.365 -0.54,-4.84 -1.2,-5.5 -1.67991,-1.67991 -31.92009,-1.67991 -33.6,0 -1.75146,1.75146 -1.7295,110.8705 0.0227,112.62266 0.89032,0.89032 5.85087,1.14854 18.25,0.95 l 17.0273,-0.27266 z m -65.15995,-96.11094 c 4.05864,-2.02251 5.91642,-3.76914 8.24315,-7.75 2.67251,-4.57247 2.96761,-5.8785 2.67661,-11.84596 -0.26985,-5.53381 -0.85426,-7.45781 -3.34121,-11 -9.38507,-13.36729 -29.45957,-11.88562 -36.67472,2.7069 -2.50279,5.06184 -2.87337,9.72365 -1.2165,15.30295 3.90259,13.14144 17.7011,18.87072 30.31267,12.58611 z"
       id="path825"
       inkscape:connector-curvature="0" />
  </g>
  <path
     style="fill:#000000"
     d=""
     id="path819"
     inkscape:connector-curvature="0" />
  <path
     style="fill:#000000"
     d=""
     id="path817"
     inkscape:connector-curvature="0" />
</svg>
