<svg xmlns="http://www.w3.org/2000/svg" width="500" height="500" xmlns:v="https://vecta.io/nano"><path d="M0 0h500v500H0z"/><path d="M166.74 417.814l-4.084-9.715 171.56.45 3.38 7.807c1.86 4.294 3.624 8.572 3.92 9.506.53 1.67-1.02 1.7-85.077 1.682l-85.616-.017zm8.735-55.343l-9.498-22.598-.23-136.996.213-136.96c.243.02 4.45 9.47 9.348 21.002l77.256 177.922c.275-.005 5.592-11.844 11.815-26.308l74.463-172.42.453 273.462-9.43 22.108-10.182 22.955c-.413.466-.648-48.978-.522-109.875l-.24-110.722c-.257 0-2.625 5.074-5.262 11.275l-50.135 116.214 23.583 54.475-5 12.26c-2.75 6.744-5.236 12.53-5.525 12.856s-5.7-11.502-12.022-26.286l-11.976-26.903c-.264-.012-5.62 11.916-11.9 26.507s-11.644 26.53-11.92 26.53-2.836-5.59-5.692-12.425l-5.194-12.425 10.432-24.053 11.73-27.6 1.297-3.537-27.078-62.56-27.078-63.45c0-.5-.403-.9-.894-.9-.6 0-.818 36.446-.663 110.538l-.21 110.515c-.243-.013-4.716-10.193-9.94-22.622z" fill="#fff"/></svg>