<svg xmlns="http://www.w3.org/2000/svg" xmlns:xlink="http://www.w3.org/1999/xlink" width="264" height="280" xmlns:v="https://vecta.io/nano"><defs><path d="M12 160c0 66.274 53.726 120 120 120s120-53.726 120-120h12V0H0v160h12z" id="A"/><path d="M124 144.61V163h4c39.765 0 72 32.235 72 72v9H0v-9c0-39.765 32.235-72 72-72h4v-18.39c-17.237-8.19-29.628-24.924-31.695-44.73C38.48 99.058 34 94.052 34 88V74c0-5.946 4.325-10.882 10-11.834V56c0-30.928 25.072-56 56-56s56 25.072 56 56v6.166c5.675.952 10 5.888 10 11.834v14c0 6.052-4.48 11.058-10.305 11.88-2.067 19.806-14.458 36.54-31.695 44.73z" id="B"/><circle id="C" cx="120" cy="120" r="120"/></defs><g fill="none" fill-rule="evenodd"><g transform="translate(12 40)"><mask id="D" fill="#fff"><use xlink:href="#C"/></mask><use fill="#e6e6e6" xlink:href="#C"/><g mask="url(#D)" fill="#fffff"><path d="M0 0h240v240H0z"/></g></g><mask id="E" fill="#fff"><use xlink:href="#A"/></mask><g mask="url(#E)"><g transform="translate(32 36)"><mask id="F" fill="#fff"><use xlink:href="#B"/></mask><use fill="#d0c6ac" xlink:href="#B"/><g mask="url(#F)" fill="#edb98a"><path d="M-32 0h264v244H-32z"/></g><path d="M156 79v23c0 30.928-25.072 56-56 56s-56-25.072-56-56v-8c0 30.928 25.072 56 56 56s56-25.072 56-56V79z" fill-opacity=".1" fill="#000" mask="url(#F)"/></g><g transform="translate(0 170)"><defs><path d="M108 13.07c-17.92 2.006-31.72 7.482-31.996 21.575C50.146 45.568 32 71.165 32 101v9h200v-9c0-29.835-18.146-55.432-44.004-66.355C187.72 20.552 173.92 15.075 156 13.07V32c0 13.255-10.745 24-24 24s-24-10.745-24-24V13.07z" id="G"/></defs><mask id="H" fill="#fff"><use xlink:href="#G"/></mask><use fill="#b7c1db" xlink:href="#G"/><g mask="url(#H)" fill="#262e33"><path d="M0 0h264v110H0z"/></g><path d="M102 61.74V110h-7V58.15a64.54 64.54 0 007 3.59zm67-3.59V98.5a3.5 3.5 0 11-7 0V61.74a64.54 64.54 0 007-3.59z" fill="#f4f4f4" mask="url(#H)"/><path d="M90.96 12.724C75.9 15.57 65.5 21.243 65.5 32.308 65.5 52.02 98.538 68 132 68s66.5-15.98 66.5-35.692c0-11.065-10.4-16.737-25.46-19.584 9.085 3.35 14.96 8.982 14.96 18.353C188 51.47 160.18 68 132 68S76 51.47 76 31.077c0-9.37 5.875-15.003 14.96-18.353z" fill-opacity=".16" fill="#000" mask="url(#H)"/></g><g fill="#000"><path d="M118 149c0 7.732 6.268 14 14 14s14-6.268 14-14" fill-opacity=".7"/><path d="M120 130c0 4.418 5.373 8 12 8s12-3.582 12-8" fill-opacity=".16"/><g fill-opacity=".6"><path d="M92.16 112.447c1.847-3.798 6.004-6.447 10.838-6.447 4.816 0 8.96 2.63 10.817 6.407.552 1.122-.233 2.04-1.024 1.36-2.45-2.107-5.932-3.423-9.793-3.423-3.74 0-7.124 1.235-9.56 3.228-.89.728-1.818-.014-1.278-1.125zm58 0c1.847-3.798 6.004-6.447 10.838-6.447 4.816 0 8.96 2.63 10.817 6.407.552 1.122-.233 2.04-1.024 1.36-2.45-2.107-5.932-3.423-9.793-3.423-3.74 0-7.124 1.235-9.56 3.228-.89.728-1.818-.014-1.278-1.125z"/></g><g fill-rule="nonzero" fill-opacity=".6"><path d="M91.63 99.159c3.915-5.51 14.648-8.598 23.893-6.328a2 2 0 00.954-3.884c-10.737-2.637-23.165.94-28.107 7.894a2 2 0 003.26 2.318zM172.37 99.159c-3.915-5.51-14.648-8.598-23.893-6.328a2 2 0 01-.954-3.884c10.737-2.637 23.165.94 28.108 7.894a2 2 0 01-3.26 2.318z"/></g></g><defs><path id="I" d="M0 0h264v280H0z"/><path d="M183.68 38.95c5.406-4.95 6.707-14.987 3.638-21.5-3.77-7.995-11.417-8.997-18.746-5.48-6.908 3.315-13.057 4.42-20.622 2.813-7.258-1.54-14.144-4.26-21.647-4.706-12.325-.733-24.3 3.84-32.7 13.053-1.603 1.758-2.894 3.768-4.115 5.805-.976 1.63-2.077 3.38-2.493 5.258-.198.894.17 3.098-.275 3.83-.48.8-2.296 1.515-3.07 2.102-1.567 1.19-2.924 2.53-4.18 4.047-2.666 3.222-4.133 6.587-5.368 10.572-4.102 13.245-4.45 28.998.854 42.004.707 1.734 2.898 5.352 4.186 1.638.255-.734-.334-3.194-.333-3.935.005-2.72 1.506-20.73 8.047-30.817 2.13-3.284 11.973-15.58 13.984-15.68 1.065 1.693 11.88 12.5 39.942 11.242 12.662-.572 22.4-6.26 24.738-8.727 1.028 5.533 12.992 13.816 14.815 17.224 5.267 9.846 6.435 30.304 8.445 30.265s3.453-5.237 3.867-6.23c3.072-7.375 3.595-16.632 3.267-24.56-.427-10.202-4.638-21.226-12.235-28.22z" id="J"/></defs><mask id="K" fill="#fff"><use xlink:href="#I"/></mask><g mask="url(#K)"><g transform="translate(-1)"><g transform="translate(49 72)"><defs><path d="M101.428 98.17c-2.513 2.294-5.2 3.325-8.575 2.604-.582-.124-2.957-4.538-8.853-4.538s-8.27 4.414-8.853 4.538c-3.385.72-6.062-.3-8.576-2.604-4.725-4.313-8.654-10.26-6.293-16.75 1.23-3.382 3.232-7.095 6.873-8.173 3.887-1.15 9.346-.002 13.264-.788C81.685 72.204 83.07 71.75 84 71c.93.75 2.316 1.204 3.585 1.458 3.918.786 9.376-.362 13.264.788 3.64 1.078 5.642 4.8 6.873 8.173 2.36 6.5-1.568 12.437-6.294 16.75M140.08 26c-3.4 8.4-2.093 18.858-2.724 27.676-.513 7.167-2.02 17.9-8.384 22.54-3.255 2.367-9.18 6.345-13.43 5.235-2.927-.764-3.24-9.16-7.087-12.303-4.363-3.565-9.812-5.13-15.306-4.9-2.37.105-7.165.08-9.15 1.903-1.983-1.823-6.777-1.798-9.148-1.902-5.494-.242-10.943 1.324-15.306 4.89-3.847 3.143-4.16 11.54-7.087 12.303-4.252 1.1-10.176-2.868-13.43-5.235-6.365-4.63-7.87-15.372-8.384-22.54-.63-8.817.686-19.275-2.724-27.675-1.66 0-.565 16.13-.565 16.13v20.356c.032 15.288 9.58 38.17 30.754 46.908C63.286 111.53 75.015 115 84 115s20.714-3.14 25.892-5.277c21.173-8.737 30.722-31.95 30.754-47.238V42.13S141.74 26 140.08 26" id="L"/></defs><mask id="M" fill="#fff"><use xlink:href="#L"/></mask><use fill="#331b0c" xlink:href="#L"/><g mask="url(#M)" fill="#4a312c"><path d="M-32 0h264v244H-32z"/></g></g><mask id="N" fill="#fff"><use xlink:href="#J"/></mask><use fill="#28354b" xlink:href="#J"/><g mask="url(#N)" fill="#2c1b18"><path d="M0 0h264v280H0z"/></g><g transform="translate(62 85)"><defs><filter x="-.8%" y="-2.4%" width="101.5%" height="109.8%" id="O"><feOffset dy="2" in="SourceAlpha"/><feColorMatrix values="0 0 0 0 0 0 0 0 0 0 0 0 0 0 0 0 0 0 0.2 0" result="B"/><feMerge><feMergeNode in="B"/><feMergeNode in="SourceGraphic"/></feMerge></filter></defs><g filter="url(#O)" transform="translate(6 7)" fill="#252c2f" fill-rule="nonzero"><path d="M34 41h-2.758C17.315 41 9 33.336 9 20.5 9 10.127 10.817 0 32.53 0h2.94C57.183 0 59 10.127 59 20.5 59 32.57 48.72 41 34 41zM32.385 6C13 6 13 12.84 13 21.502 13 28.572 16.116 37 30.97 37H34c12.365 0 21-6.373 21-15.498C55 12.84 55 6 35.615 6h-3.23zM96 41h-2.758C79.315 41 71 33.336 71 20.5 71 10.127 72.817 0 94.53 0h2.94C119.183 0 121 10.127 121 20.5 121 32.57 110.72 41 96 41zM94.385 6C75 6 75 12.84 75 21.502 75 28.572 78.12 37 92.97 37H96c12.365 0 21-6.373 21-15.498C117 12.84 117 6 97.615 6h-3.23z"/><path d="M2.955 5.772C3.645 5.096 11.2 0 32.5 0c17.85 0 21.63 1.853 27.35 4.652l.42.207c.398.14 2.43.83 4.8.907a16.998 16.998 0 4.563-.869 undefined undefinedcNaN NaN NaN NaN NaN NaN 21.3 0 28.854 5.096 29.545 5.772 1.634 0 2.955 1.3 2.955 2.885v2.886c0 1.596-1.32 2.886-2.955 2.886 0 0-6.9 0-6.9 2.886s-1.962-4.176-1.962-5.772v-2.8c-3.603-1.38-10.054-3.947-20.682-3.947-11.842 0-17.74 2.1-22.798 4.185l.057.137-.003 1.986-2.217 5.35-2.74-1.084c-.244-.097-.772-.27-1.504-.45-2.04-.503-4.137-.656-5.992-.276-.68.14-1.312.35-1.89.633l-2.643 1.3-2.643-5.16.117-2.295.08-.195c-4.362-2.033-8.385-4.12-22.824-4.12-10.628 0-17.078 2.565-20.682 3.944v2.812c0 1.596-2.954 8.657-2.954 5.772s-5.9-2.886-5.9-2.886c-1.63 0-2.954-1.3-2.954-2.886V8.657c0-1.595 1.324-2.885 2.955-2.885z"/></g></g></g></g></g></g></svg>