<?xml version="1.0" encoding="UTF-8" standalone="no"?>
<!-- Created with Inkscape (http://www.inkscape.org/) -->

<svg
   xmlns:dc="http://purl.org/dc/elements/1.1/"
   xmlns:cc="http://creativecommons.org/ns#"
   xmlns:rdf="http://www.w3.org/1999/02/22-rdf-syntax-ns#"
   xmlns:svg="http://www.w3.org/2000/svg"
   xmlns="http://www.w3.org/2000/svg"
   xmlns:sodipodi="http://sodipodi.sourceforge.net/DTD/sodipodi-0.dtd"
   xmlns:inkscape="http://www.inkscape.org/namespaces/inkscape"
   version="1.1"
   id="svg2"
   width="500"
   height="500"
   viewBox="0 0 500 500"
   sodipodi:docname="wc.svg"
   inkscape:version="0.92.4 (5da689c313, 2019-01-14)">
  <metadata
     id="metadata8">
    <rdf:RDF>
      <cc:Work
         rdf:about="">
        <dc:format>image/svg+xml</dc:format>
        <dc:type
           rdf:resource="http://purl.org/dc/dcmitype/StillImage" />
        <dc:title />
      </cc:Work>
    </rdf:RDF>
  </metadata>
  <defs
     id="defs6" />
  <sodipodi:namedview
     pagecolor="#ffffff"
     bordercolor="#666666"
     borderopacity="1"
     objecttolerance="10"
     gridtolerance="10"
     guidetolerance="10"
     inkscape:pageopacity="0"
     inkscape:pageshadow="2"
     inkscape:window-width="1536"
     inkscape:window-height="801"
     id="namedview4"
     showgrid="false"
     inkscape:zoom="0.58630549"
     inkscape:cx="380.34048"
     inkscape:cy="139.5314"
     inkscape:window-x="1912"
     inkscape:window-y="-8"
     inkscape:window-maximized="1"
     inkscape:current-layer="svg2" />
  <rect
     style="opacity:1;fill:#ffffff;fill-opacity:1;fill-rule:nonzero;stroke:none;stroke-width:1.43400013;stroke-linejoin:round;stroke-miterlimit:4;stroke-dasharray:none;stroke-opacity:1"
     id="rect835"
     width="501"
     height="500"
     x="-0.87966859"
     y="1.0189672e-05" />
  <g
     id="g817"
     transform="matrix(0.34153929,0,0,0.34153929,922.72491,-486.80704)"
     style="stroke-width:2.92792106">
    <path
       style="fill:#3abcdf;stroke-width:2.92792106"
       d="m -2214.4733,2650.2688 c -62.0486,-5.3129 -120.1347,-28.3398 -168,-66.5997 -11.6248,-9.292 -33.5598,-30.7596 -43.4669,-42.5407 -41.1266,-48.9064 -65.6437,-108.1602 -71.4864,-172.7711 -0.6786,-7.5045 -1.0411,-82.1172 -1.0433,-214.7554 v -203.2554 l 88.75,0.2554 88.75,0.2554 0.5366,202.5 c 0.5363,202.391 0.5377,202.5046 2.666,211 9.9057,39.5409 33.5972,70.5579 67.5998,88.502 30.2679,15.9731 67.4517,19.2653 100.1976,8.8712 38.7451,-12.2983 70.4309,-43.0849 84.0352,-81.6505 1.5089,-4.2775 2.9591,-7.5618 3.2225,-7.2983 0.2635,0.2635 1.2874,6.0133 2.2753,12.7773 8.9777,61.466 37.8262,120.8278 80.5178,165.6822 l 8.9314,9.3839 -9.9318,9.4596 c -31.2962,29.8079 -77.4015,55.9023 -121.3249,68.6667 -36.1816,10.5146 -76.0966,14.611 -112.2255,11.5174 z m 441,-0.9982 c -68.7256,-6.2115 -133.6174,-34.9949 -183.6713,-81.4694 -5.5942,-5.1941 -10.61,-9.4439 -11.1461,-9.4439 -1.4368,0 -15.2668,-14.9559 -24.9675,-27 -15.537,-19.2904 -29.4135,-41.814 -40.3697,-65.5261 -14.5917,-31.5803 -25.3299,-74.0865 -25.0036,-98.9739 0.079,-6.05 0.3789,-132.1625 0.6656,-280.25 l 0.5213,-269.25 h 87.9677 87.9677 l 0.2955,267.75 0.2954,267.75 2.2418,9.7439 c 6.3254,27.4935 19.2489,50.2562 39.1909,69.0288 26.2085,24.6716 56.7869,36.7273 93.156,36.7273 37.0288,0 68.146,-12.8918 93.8563,-38.8846 19.1081,-19.3181 29.5488,-38.7329 36.6302,-68.1154 1.7197,-7.1353 1.822,-22.3498 2.1045,-312.8785 0.221,-227.2303 0.01,-305.7294 -0.8413,-306.75 -0.9146,-1.102 -6.6163,-1.3715 -29.0158,-1.3715 -15.3327,0 -27.8776,-0.3387 -27.8776,-0.7526 0,-0.4139 32.4,-33.1503 72,-72.7474 l 72,-71.9948 72,71.9948 c 39.6,39.5971 72,72.3335 72,72.7474 0,0.4139 -11.835,0.7526 -26.3,0.7526 -19.1222,0 -26.6275,0.3275 -27.5,1.2 -0.9278,0.9278 -1.2065,68.6873 -1.2285,298.75 -0.016,166.6859 -0.4326,305.4866 -0.9475,315.5958 -3.0263,59.4234 -20.549,112.2261 -53.0811,159.9542 -49.3071,72.3388 -128.35,120.8894 -214.9429,132.0246 -15.0516,1.9355 -51.4714,2.7018 -66,1.3887 z"
       id="path821"
       inkscape:connector-curvature="0" />
    <path
       style="fill:#fac200;stroke-width:2.92792106"
       d="m -2214.4733,2650.2688 c -62.0486,-5.3129 -120.1347,-28.3398 -168,-66.5997 -11.6248,-9.292 -33.5598,-30.7596 -43.4669,-42.5407 -41.1266,-48.9064 -65.6437,-108.1602 -71.4864,-172.7711 -0.6786,-7.5045 -1.0411,-82.1172 -1.0433,-214.7554 v -203.2554 l 88.75,0.2554 88.75,0.2554 0.5366,202.5 c 0.5363,202.391 0.5377,202.5046 2.666,211 9.9057,39.5409 33.5972,70.5579 67.5998,88.502 30.2679,15.9731 67.4517,19.2653 100.1976,8.8712 38.7451,-12.2983 70.4309,-43.0849 84.0352,-81.6505 1.5089,-4.2775 2.9591,-7.5618 3.2225,-7.2983 0.2635,0.2635 1.2874,6.0133 2.2753,12.7773 8.9777,61.466 37.8262,120.8278 80.5178,165.6822 l 8.9314,9.3839 -9.9318,9.4596 c -31.2962,29.8079 -77.4015,55.9023 -121.3249,68.6667 -36.1816,10.5146 -76.0966,14.611 -112.2255,11.5174 z"
       id="path819"
       inkscape:connector-curvature="0" />
  </g>
</svg>
