<svg xmlns="http://www.w3.org/2000/svg" width="1920" height="1080" xmlns:v="https://vecta.io/nano"><path d="M0-.23h1927.03v1087.68H0z" fill="#65c9ff"/><circle cx="1584.336" cy="789.456" r="59.599" fill="#65b2ff"/><circle cx="198.663" cy="218.3" r="65.807" fill="#65dfff"/><circle cx="736.294" cy="922.311" r="81.948" fill="#65bbff"/><circle cx="1020.63" cy="260.516" r="53.391" fill="#658aff" fill-opacity=".784"/><path d="M268.195 528.7l39.733-151.48m1299.937 456.053l156.57-3.223M1632.5 481.457l268.568-240.737M532.603 681.803l156.57-3.223M340.66 1050.45l128.23-89.898" fill="#fff" stroke="#fff" stroke-width="5"/><g transform="rotate(33.794)" fill="none" stroke="#658aff" stroke-width="9" stroke-linejoin="round"><path d="M261.013 398.247H606.2v345.177H261.013z"/><path d="M533.357 366.872h98.146v98.146h-98.146zm-310.627-4.26h98.146v98.146H222.73z"/></g><path transform="rotate(336.962)" d="M1545.774 749.038h318.585v318.585h-318.585z" fill="none" stroke="#658aff" stroke-width="9" stroke-linejoin="round"/><g fill="#65dfff"><circle cx="1634.002" cy="148.768" r="39.733"/><circle cx="1116.237" cy="706.266" r="24.833"/></g></svg>