<svg xmlns="http://www.w3.org/2000/svg" width="207" height="124" xmlns:v="https://vecta.io/nano"><path d="M48.942 32.632h38.96v3.082h-35.4v23.193H85.8v3.082H52.513v25.464h35.794v3.08H48.942V32.632zm42.45 0h4.14l18.343 25.464 18.75-25.464 25.5-32.345-41.896 60.485 21.6 29.762h-4.302l-19.642-27.086L94.15 90.534h-4.22l21.75-29.762-20.3-28.14zm47.967 3.082v-3.082h44.397v3.082h-20.453v54.82h-3.57v-54.82H139.36zM.203 32.632h4.464l61.557 91.67-25.44-33.77L3.936 37.01l-.162 53.523H.203zm183.194 53.89c.738 0 1.276-.563 1.276-1.3s-.538-1.3-1.276-1.3c-.73 0-1.277.563-1.277 1.3s.547 1.3 1.277 1.3zm3.51-3.393c0 2.146 1.555 3.55 3.822 3.55 2.414 0 3.874-1.446 3.874-3.956v-8.837h-1.946v8.828c0 1.394-.704 2.138-1.946 2.138-1.112 0-1.867-.692-1.893-1.722h-1.91zm10.24-.113c.14 2.233 2.007 3.662 4.787 3.662 2.97 0 4.83-1.498 4.83-3.887 0-1.878-1.06-2.917-3.632-3.514l-1.38-.338c-1.634-.38-2.294-.89-2.294-1.783 0-1.125 1.025-1.86 2.563-1.86 1.46 0 2.466.718 2.65 1.87h1.893c-.113-2.103-1.97-3.583-4.516-3.583-2.737 0-4.56 1.48-4.56 3.704 0 1.835 1.033 2.926 3.3 3.454l1.616.4c1.66.39 2.388.96 2.388 1.912 0 1.108-1.146 1.913-2.7 1.913-1.676 0-2.84-.753-3.005-1.94h-1.928z"/></svg>