<svg xmlns="http://www.w3.org/2000/svg" width="500" height="500" xmlns:v="https://vecta.io/nano"><path d="M-.88 0h501v500h-501z" fill="#fff"/><path d="M166.396 418.363c-21.192-1.815-41.03-9.68-57.38-22.746-3.97-3.174-11.462-10.506-14.846-14.53-14.046-16.703-22.42-36.94-24.415-59.008-.232-2.563-.356-28.046-.356-73.347v-69.42l60.623.174.183 69.162.91 72.065c3.383 13.505 11.475 24.098 23.088 30.227 10.338 5.455 23.037 6.58 34.22 3.03 13.233-4.2 24.055-14.715 28.7-27.887.515-1.46 1.01-2.583 1.1-2.493s.44 2.054.777 4.364c3.066 20.993 12.92 41.267 27.5 56.587l3.05 3.205-3.392 3.23c-10.69 10.18-26.436 19.093-41.437 23.452-12.357 3.59-26 5-38.33 3.934zm150.62-.34c-23.472-2.12-45.636-11.952-62.73-27.825-1.91-1.774-3.624-3.225-3.807-3.225-.49 0-5.214-5.108-8.527-9.222-5.306-6.588-10.046-14.28-13.788-22.38-4.984-10.786-8.65-25.303-8.54-33.803l.227-95.716.178-91.96h60.09l.202 182.894.766 3.328c2.16 9.4 6.574 17.164 13.385 23.576 8.95 8.426 19.395 12.544 31.816 12.544 12.647 0 23.275-4.403 32.056-13.28 6.526-6.598 10.092-13.23 12.51-23.264.587-2.437.622-7.633.72-106.86l-.287-104.767c-.312-.376-2.26-.468-9.9-.468-5.237 0-9.52-.116-9.52-.257s11.066-11.322 24.59-24.846l24.59-24.59 24.59 24.59 24.59 24.846c0 .14-4.042.257-8.982.257-6.53 0-9.094.112-9.392.4-.317.317-.412 23.46-.42 102.035l-.324 107.788c-1.034 20.295-7.018 38.33-18.13 54.63-16.84 24.707-43.837 41.288-73.41 45.092-5.14.66-17.58.923-22.542.474z" fill="#3abcdf"/><path d="M166.396 418.363c-21.192-1.815-41.03-9.68-57.38-22.746-3.97-3.174-11.462-10.506-14.846-14.53-14.046-16.703-22.42-36.94-24.415-59.008-.232-2.563-.356-28.046-.356-73.347v-69.42l60.623.174.183 69.162.91 72.065c3.383 13.505 11.475 24.098 23.088 30.227 10.338 5.455 23.037 6.58 34.22 3.03 13.233-4.2 24.055-14.715 28.7-27.887.515-1.46 1.01-2.583 1.1-2.493s.44 2.054.777 4.364c3.066 20.993 12.92 41.267 27.5 56.587l3.05 3.205-3.392 3.23c-10.69 10.18-26.436 19.093-41.437 23.452-12.357 3.59-26 5-38.33 3.934z" fill="#fac200"/></svg>