<svg xmlns="http://www.w3.org/2000/svg" width="286.014" height="285.972" xmlns:v="https://vecta.io/nano"><path d="M17.648 284.375c-3.286-1.01-6.42-3.052-9.675-6.308-8.508-8.508-7.965.702-7.965-135.06C.007 7.266-.534 16.453 7.96 7.96S7.266.007 143.007.007s126.554-.54 135.048 7.952 7.952-.694 7.952 135.048.54 126.554-7.952 135.048c-8.5 8.5.767 7.962-135.48 7.883l-124.928-1.562zM96.766 165.07c.204-44.486-.008-56.605-1-57.235-2.113-1.34-33.18-1.008-34.558.37-1.75 1.75-1.73 110.87.023 112.623.9.9 5.85 1.15 18.25.95l17.027-.273zm57.248 22.436l.507-34 2.828-5.773c3.804-7.766 8.143-10.095 17.788-9.55 5.884.333 7.216.78 9.86 3.313 5.486 5.255 6 9.225 6 45.49 0 24.037.316 32.934 1.2 33.818.838.838 6.256 1.2 17.95 1.2 14.91 0 16.858-.192 17.734-1.75 1.528-2.72.25-75.04-1.48-83.75-3.897-19.618-14.74-29.4-35.458-31.987-10.912-1.363-24.94 2.874-32.688 9.873-2.2 1.988-4.284 3.615-4.63 3.615s-.63-1.935-.63-4.3-.54-4.84-1.2-5.5c-1.68-1.68-31.92-1.68-33.6 0-1.75 1.75-1.73 110.87.023 112.623.9.9 5.85 1.15 18.25.95l17.027-.273zm-65.16-96.11c4.06-2.023 5.916-3.77 8.243-7.75 2.673-4.572 2.968-5.88 2.677-11.846-.27-5.534-.854-7.458-3.34-11-9.385-13.367-29.46-11.886-36.675 2.707-2.503 5.062-2.873 9.724-1.216 15.303 3.903 13.14 17.7 18.87 30.313 12.586z" fill="#fff"/></svg>